<?xml version="1.0" encoding="UTF-8" standalone="no"?>
<!DOCTYPE svg PUBLIC "-//W3C//DTD SVG 1.1//EN" "http://www.w3.org/Graphics/SVG/1.1/DTD/svg11.dtd">
<svg width="100%" height="100%" viewBox="0 0 947 323" version="1.1" xmlns="http://www.w3.org/2000/svg" xmlns:xlink="http://www.w3.org/1999/xlink" xml:space="preserve" xmlns:serif="http://www.serif.com/" style="fill-rule:evenodd;clip-rule:evenodd;stroke-linejoin:round;stroke-miterlimit:2;">
    <g id="Software">
        <path d="M353.96,299.22C353.96,319.66 370.8,322.21 379.32,322.21C382.06,322.21 383.96,321.83 383.96,321.83L383.96,308.58C383.96,308.58 382.92,308.86 381.22,308.86C377.06,308.86 369.11,307.44 369.11,297.41L369.11,272.81L383.02,272.81L383.02,260.7L369.11,260.7L369.11,244.05L354.26,244.05L354.26,260.7L346.03,260.7L346.03,272.81L353.88,272.81L353.88,299.21L353.97,299.21L353.96,299.22ZM306.65,321.55L321.79,321.55L321.79,272.63L334.85,272.63L334.85,260.52L321.79,260.52L321.79,259.1C321.79,250.3 329.17,249.17 333.52,249.17C335.32,249.17 336.64,249.45 336.64,249.45L336.64,236.58C336.64,236.58 334.65,236.2 331.53,236.2C323.01,236.2 306.65,238.85 306.65,258.81L306.65,260.61L299.08,260.61L299.08,272.72L306.65,272.72L306.65,321.55ZM242.41,291.08C242.41,279.82 250.64,272.06 260.48,272.06C270.32,272.06 278.65,279.82 278.65,291.08C278.65,302.34 270.42,310.1 260.48,310.1C250.54,310.1 242.41,302.44 242.41,291.08M227.08,291.08C227.08,309.81 241.93,322.97 260.38,322.97C278.83,322.97 293.87,309.82 293.87,291.08C293.87,272.34 279.02,259.19 260.38,259.19C241.93,259.1 227.08,272.44 227.08,291.08M168.13,312.08C168.13,312.08 176.74,322.96 193.49,322.96C206.74,322.96 216.95,315.77 216.95,304.32C216.95,283.98 184.59,285.87 184.59,276.31C184.59,272.71 188.28,270.82 193.67,270.82C196.98,270.82 201.33,272.24 201.33,275.17L201.33,278.2L214.67,278.2L214.67,271.77C214.67,261.84 201.52,259.09 193.29,259.09C180.61,259.09 169.64,264.67 169.64,276.88C169.64,296.56 201.81,296.47 201.81,305.08C201.81,309.15 198.21,311.04 193.58,311.04C183.17,311.04 175.41,302.05 175.41,302.05L168.12,312.08L168.13,312.08Z" style="fill:rgb(37,110,255);fill-rule:nonzero;"/>
        <path d="M697.48,283.14C699.18,275.48 704.67,270.84 712.43,270.84C718.67,270.84 723.69,275.85 723.88,283.14L697.48,283.14ZM681.49,291.09C681.49,308.4 694.07,322.98 714.23,322.98C729.37,322.98 738.74,313.8 738.74,313.8L732.4,303.3C732.4,303.3 725.11,310.11 715.27,310.11C706.09,310.11 698.14,304.53 697.01,293.74L739.11,293.74C739.11,293.74 739.49,289.96 739.49,288.16C739.49,271.98 729.93,259.21 712.43,259.21C694.17,259.12 681.49,272.27 681.49,291.1M639.39,321.57L654.43,321.57L654.43,297.44C654.43,293.84 654.9,290.53 655.75,287.51C658.49,278.43 665.87,274.74 672.4,274.74C674.58,274.74 676.09,275.02 676.09,275.02L676.09,260.07C676.09,260.07 674.67,259.79 673.35,259.79C663.98,259.79 656.7,266.7 653.95,275.4L653.67,275.4C653.67,275.4 653.95,273.89 653.95,271.62L653.95,268.02C653.95,262.91 651.21,260.64 645.81,260.64L631.9,260.64L631.9,273.51L636.73,273.51C638.43,273.51 639.38,274.36 639.38,276.16L639.38,321.58L639.39,321.57ZM580.54,303.31C580.54,294.79 593.12,293.75 600.98,293.75L603.63,293.75L603.63,295.17C603.63,302.55 597.86,311.16 589.72,311.16C583.48,311.16 580.54,307.38 580.54,303.31M565.21,303.97C565.21,316.18 575.14,322.99 586.03,322.99C599.75,322.99 604.48,312.2 604.48,312.2L604.76,312.2C604.76,312.2 604.67,313.24 604.67,314.85C604.67,318.45 606.85,321.57 612.43,321.57L626.05,321.57L626.05,308.8L621.22,308.8C619.52,308.8 618.57,307.85 618.57,306.15L618.57,283.44C618.57,269.82 612.61,259.12 592.27,259.12C585.93,259.12 569.94,260.35 569.94,271.7L569.94,278.13L584.04,278.13L584.04,274.91C584.04,271.6 589.43,270.84 592.18,270.84C599.94,270.84 603.44,274.06 603.44,282.76L603.44,283.23L601.55,283.23C591.52,283.32 565.22,284.84 565.22,303.95M480.92,321.55L498.14,321.55L508.45,286.73C509.4,283.51 509.96,280.2 509.96,280.2L510.24,280.2C510.24,280.2 510.71,283.51 511.66,286.73L522.07,321.55L539.2,321.55L553.77,275.66C554.53,273.86 555.28,273.48 557.08,273.48L558.78,273.48L558.78,260.61L548.37,260.61C543.36,260.61 540.99,262.12 539.76,266.85L530.87,300.72C530.02,303.94 529.64,307.15 529.64,307.15L529.36,307.15C529.36,307.15 528.98,303.93 528.04,300.72L516.69,260.89L503.44,260.89L492.18,300.72C491.23,303.94 490.76,307.15 490.76,307.15L490.48,307.15C490.48,307.15 490.1,303.93 489.25,300.72L480.26,266.85C479.03,262.21 476.66,260.61 471.65,260.61L461.24,260.61L461.24,273.48L462.94,273.48C464.74,273.48 465.68,273.86 466.25,275.66L480.92,321.55Z" style="fill:rgb(37,110,255);fill-rule:nonzero;"/>
    </g>
    <rect x="647.7" y="0" width="39.23" height="37.72" style="fill:white;"/>
    <rect x="912.53" y="196.79" width="33.94" height="33.52" style="fill:rgb(37,110,255);"/>
    <path d="M925.64,101.8L925.72,67.65L899.92,67.65L899.92,67.68C889.55,67.68 880.77,74.4 877.65,83.72L877.63,83.72C877.63,83.72 847.53,177.27 845.88,185.85L845.11,185.85C845.11,185.85 808.63,86.19 808.6,86.13C805.1,77.56 796.68,67.74 786.85,67.74C786.66,67.74 763.78,67.71 763.78,67.71L763.78,64.02C763.78,51.04 773.89,42.67 794.11,42.67C797.13,42.67 799.79,42.87 802.1,43.28L802.1,9.33C802.1,9.33 787.4,7.26 773.66,9.46C768.69,10.26 763.07,11.75 756.84,14.21C750.6,16.67 745.19,19.92 740.62,23.94C736.04,27.96 732.22,33.65 729.15,40.99C726.08,48.34 724.55,56.93 724.55,63.05L724.55,67.73L712.43,67.68L712.43,101.8L724.55,101.8L724.55,196.78L687.14,196.78L687.14,67.72L635.83,67.72L635.83,101.79L647.92,101.79L647.92,196.77L610.61,196.77L610.58,9.6L559.35,9.6L559.35,42.64L571.38,42.64C571.38,42.64 571.37,205.09 571.37,206.55C571.37,219.53 581.89,230.05 594.87,230.05C597.223,230.05 653.533,230.06 763.8,230.08L763.8,101.8L773.44,101.8L825.1,227.28C825.25,227.65 825.29,228.06 825.19,228.45L823.46,236.03C822.44,240.51 820.78,244.86 818.23,248.69C812.86,256.76 805.62,260.8 801.11,260.82L758.64,260.82L758.64,293.87L804.53,293.87L799.92,293.82C811.74,293.57 822.51,290.15 832.2,283.51C842.27,276.61 850,266.39 855.39,252.86L895.4,151.93L912.5,101.8L925.65,101.8L925.64,101.8Z" style="fill:white;fill-rule:nonzero;"/>
    <path d="M539.69,91.65C526.98,76.43 510.07,68.81 488.96,68.81C482.23,68.81 475.83,69.76 469.75,71.65C463.67,73.54 458.93,75.59 455.51,77.79C452.09,79.99 448.98,82.57 446.09,85.46C440.92,90.63 439.08,94.28 439.08,94.28L438.47,94.28L438.47,68.75L390.43,68.75L390.43,101.79L402.58,101.79L402.58,197.05L377.31,197.05L377.31,128.48C377.31,88.7 360.12,68.81 325.74,68.81C313.9,68.81 303.13,71.96 293.45,78.24C283.77,84.53 276.66,92.2 272.15,101.25L271.55,101.25C264.81,79.62 249.48,68.81 225.56,68.81C214.02,68.81 203.68,72.11 194.55,78.69C185.42,85.28 178.79,92.9 174.68,101.55L174.08,101.55L174.08,67.68L133.85,67.75C137.56,70.51 142.02,74.68 145.16,78.27C158.33,93.31 164.46,115.02 164.46,138.36L164.09,165.32L136.36,165.32L136.36,230.1L175.59,230.1L175.59,160.85C175.59,154.31 176.39,147.72 178,141.08C180.71,130.42 185.35,121.69 191.92,114.9C198.49,108.11 206.49,104.72 215.93,104.72C224.56,104.72 230.28,107.44 233.09,112.87C235.9,118.3 237.31,126.05 237.31,136.11L237.31,230.11L276.54,230.11L276.54,160.86C276.54,153.01 277.34,146.32 278.95,140.79C281.26,130.53 285.8,121.95 292.57,115.06C299.34,108.17 307.34,104.72 316.58,104.72C325.01,104.72 330.7,107.37 333.66,112.67C336.62,117.97 338.1,125.71 338.1,135.9C338.1,135.9 338.13,204.81 338.13,206.57C338.13,219.55 348.65,230.07 361.63,230.07C363.11,230.07 402.61,230.1 402.61,230.1L402.38,321.64L441.61,321.64L441.84,226.71C441.84,221.39 441.74,213.26 441.74,209.45C441.74,209.45 445.54,214.75 452.2,219.35C458.39,223.62 465.1,226.55 470.37,228C475.64,229.45 481.14,230.18 486.86,230.18C507.78,230.18 524.99,222.6 538.5,207.45C552.01,192.3 558.77,176.03 558.77,151.26C558.77,126.49 552.41,106.87 539.7,91.65L539.69,91.65ZM509.47,187.65C501.74,196.44 492.1,200.84 480.53,200.84C467.94,200.84 458.19,196.04 451.28,186.44C444.37,176.84 440.92,165.42 440.92,152.18C440.92,135.91 444.78,123.66 452.51,115.43C460.24,107.2 469.78,103.08 481.14,103.08C493.12,103.08 502.76,107.57 510.08,116.55C517.4,125.53 521.06,137.31 521.06,151.89C521.06,166.47 517.2,178.88 509.47,187.67L509.47,187.65Z" style="fill:white;fill-rule:nonzero;"/>
    <path d="M60.6,152.98L152.03,152.98L152.31,137.11C152.31,115.03 146.64,97.86 134.01,83.43C121.38,69 103.92,61.79 81.64,61.79C57.4,61.79 37.74,69.62 22.64,85.28C7.55,100.94 0,121.2 0,146.05C0,169.56 7.93,189.49 23.8,205.81C39.66,222.14 60.53,230.3 90.73,230.3L111.13,230.3L111.13,196.56L89.05,196.56C76.42,196.56 65.58,192.75 56.55,185.12C52.91,182.04 49.91,178.44 47.5,174.36C43.06,167.08 40.05,157.43 40.05,144.56C40.05,137.58 40.07,132.62 41.89,125.24C43.45,118.93 45.77,113.39 49.04,108.74C55.61,98.69 65.67,92.74 79.05,92.74L81.33,92.74C89.75,92.74 96.86,95.8 102.66,101.9C108.46,108.01 111.47,115.79 111.67,125.24L60.59,125.24L60.59,152.97L60.6,152.98Z" style="fill:rgb(37,110,255);fill-rule:nonzero;"/>
</svg>
